<svg fill="#000000" height="200px" width="200px" version="1.1" id="Layer_1" xmlns="http://www.w3.org/2000/svg" xmlns:xlink="http://www.w3.org/1999/xlink" viewBox="0 0 512.001 512.001" xml:space="preserve"><g id="SVGRepo_bgCarrier" stroke-width="0"></g><g id="SVGRepo_tracerCarrier" stroke-linecap="round" stroke-linejoin="round"></g><g id="SVGRepo_iconCarrier"> <g> <g> <g> <path d="M304.427,147.399H275.38v-29.046c0-10.706-8.68-19.386-19.386-19.386c-10.706,0-19.386,8.68-19.386,19.386V147.4h-29.047 c-10.706,0-19.386,8.68-19.386,19.386s8.68,19.386,19.386,19.386h29.047v29.046c0,10.706,8.68,19.386,19.386,19.386 c10.706,0,19.386-8.68,19.386-19.386v-29.046h29.047c10.706,0,19.386-8.68,19.386-19.386 C323.813,156.079,315.135,147.399,304.427,147.399z"></path> <path d="M446.704,19.386C446.704,8.68,438.024,0,427.318,0H84.672C73.966,0,65.286,8.68,65.286,19.386 c0,19.634-0.004,395.991-0.004,415.78c0,10.706,8.68,19.386,19.386,19.386h56.06v38.045c0,17.236,20.909,25.888,33.091,13.71 l33.746-33.736l33.735,33.733c12.109,12.114,33.094,3.665,33.094-13.707v-38.045h152.938c10.706,0,19.386-8.68,19.386-19.386 C446.72,423.13,446.704,234.426,446.704,19.386z M104.059,38.773h303.873v256.026H104.059V38.773z M235.623,445.793 l-14.346-14.345c-7.568-7.571-19.842-7.571-27.413-0.003l-14.363,14.357c0-22.535,0-29.22,0-51.734h56.122 C235.623,416.595,235.623,423.285,235.623,445.793z M407.947,415.78H274.395v-21.714h94.993c10.706,0,19.386-8.68,19.386-19.386 c0-10.706-8.68-19.386-19.386-19.386H142.614c-10.706,0-19.386,8.68-19.386,19.386c0,10.071,7.68,18.342,17.501,19.291v21.81 h-36.674v-82.207h303.892V415.78z"></path> </g> </g> </g> </g></svg>