<svg width="31" height="30" viewBox="0 0 31 30" fill="none" xmlns="http://www.w3.org/2000/svg">
<path d="M15.6579 0C23.9424 0 30.6579 6.7155 30.6579 15C30.6579 23.2845 23.9424 30 15.6579 30C7.3734 30 0.657898 23.2845 0.657898 15C0.657898 6.7155 7.3734 0 15.6579 0ZM22.5519 8.106C22.4033 7.95744 22.2072 7.86594 21.9979 7.84756C21.7886 7.82919 21.5796 7.8851 21.4074 8.0055C17.0724 11.0475 14.6274 12.8505 14.0664 13.4085C13.6443 13.8306 13.4072 14.4031 13.4072 15C13.4072 15.5969 13.6443 16.1694 14.0664 16.5915C14.4885 17.0136 15.061 17.2507 15.6579 17.2507C16.2548 17.2507 16.8273 17.0136 17.2494 16.5915C17.5779 16.2615 19.3764 13.815 22.6464 9.246C22.7681 9.07553 22.8254 8.86742 22.8081 8.65868C22.7908 8.44994 22.7 8.25411 22.5519 8.106ZM23.9079 13.5C23.5101 13.5 23.1285 13.658 22.8472 13.9393C22.5659 14.2206 22.4079 14.6022 22.4079 15C22.4079 15.3978 22.5659 15.7794 22.8472 16.0607C23.1285 16.342 23.5101 16.5 23.9079 16.5C24.3057 16.5 24.6873 16.342 24.9686 16.0607C25.2499 15.7794 25.4079 15.3978 25.4079 15C25.4079 14.6022 25.2499 14.2206 24.9686 13.9393C24.6873 13.658 24.3057 13.5 23.9079 13.5ZM7.4079 13.5C7.01007 13.5 6.62854 13.658 6.34724 13.9393C6.06593 14.2206 5.9079 14.6022 5.9079 15C5.9079 15.3978 6.06593 15.7794 6.34724 16.0607C6.62854 16.342 7.01007 16.5 7.4079 16.5C7.80572 16.5 8.18725 16.342 8.46856 16.0607C8.74986 15.7794 8.9079 15.3978 8.9079 15C8.9079 14.6022 8.74986 14.2206 8.46856 13.9393C8.18725 13.658 7.80572 13.5 7.4079 13.5ZM10.8849 8.106C10.7465 7.96273 10.581 7.84846 10.398 7.76985C10.215 7.69123 10.0182 7.64986 9.819 7.64812C9.61983 7.64639 9.42231 7.68435 9.23797 7.75977C9.05362 7.83519 8.88614 7.94657 8.74531 8.08741C8.60447 8.22825 8.49309 8.39572 8.41767 8.58007C8.34224 8.76441 8.30429 8.96193 8.30602 9.1611C8.30775 9.36027 8.34913 9.5571 8.42775 9.74011C8.50636 9.92311 8.62063 10.0886 8.7639 10.227C9.0468 10.5002 9.4257 10.6514 9.819 10.648C10.2123 10.6446 10.5885 10.4868 10.8666 10.2087C11.1447 9.93062 11.3025 9.5544 11.3059 9.1611C11.3093 8.76781 11.1581 8.3889 10.8849 8.106ZM15.6579 5.25C15.2601 5.25 14.8785 5.40804 14.5972 5.68934C14.3159 5.97064 14.1579 6.35218 14.1579 6.75C14.1579 7.14782 14.3159 7.52936 14.5972 7.81066C14.8785 8.09196 15.2601 8.25 15.6579 8.25C16.0557 8.25 16.4373 8.09196 16.7186 7.81066C16.9999 7.52936 17.1579 7.14782 17.1579 6.75C17.1579 6.35218 16.9999 5.97064 16.7186 5.68934C16.4373 5.40804 16.0557 5.25 15.6579 5.25Z" fill="white"/>
</svg>
