<svg width="49" height="48" viewBox="0 0 49 48" fill="none" xmlns="http://www.w3.org/2000/svg">
<path d="M24.5 36.5C24.1022 36.5 23.7206 36.658 23.4393 36.9393C23.158 37.2206 23 37.6022 23 38C23 38.3978 23.158 38.7794 23.4393 39.0607C23.7206 39.342 24.1022 39.5 24.5 39.5H36.5C37.4283 39.5 38.3185 39.1313 38.9749 38.4749C39.6313 37.8185 40 36.9283 40 36V12C40 11.0717 39.6313 10.1815 38.9749 9.52513C38.3185 8.86875 37.4283 8.5 36.5 8.5H24.5C24.1022 8.5 23.7206 8.65804 23.4393 8.93934C23.158 9.22064 23 9.60218 23 10C23 10.3978 23.158 10.7794 23.4393 11.0607C23.7206 11.342 24.1022 11.5 24.5 11.5H36.5C36.6326 11.5 36.7598 11.5527 36.8536 11.6464C36.9473 11.7402 37 11.8674 37 12V36C37 36.1326 36.9473 36.2598 36.8536 36.3536C36.7598 36.4473 36.6326 36.5 36.5 36.5H24.5Z" fill="white"/>
<path fill-rule="evenodd" clip-rule="evenodd" d="M29.506 28.73C30.886 28.73 32.006 27.61 32.006 26.23V21.75C32.006 20.37 30.886 19.25 29.506 19.25H20.28C20.2673 19.1033 20.2539 18.9566 20.24 18.81L20.132 17.698C20.0938 17.3053 19.9615 16.9275 19.7462 16.5968C19.5309 16.2661 19.2391 15.9922 18.8954 15.7983C18.5518 15.6043 18.1664 15.4962 17.772 15.4829C17.3777 15.4696 16.9859 15.5516 16.63 15.722C13.3611 17.2878 10.4016 19.4309 7.89399 22.048L7.69599 22.256C7.24884 22.7226 6.99921 23.3438 6.99921 23.99C6.99921 24.6362 7.24884 25.2575 7.69599 25.724L7.89599 25.93C10.4029 28.5477 13.3616 30.6914 16.63 32.258C16.9859 32.4284 17.3777 32.5104 17.772 32.4971C18.1664 32.4839 18.5518 32.3757 18.8954 32.1818C19.2391 31.9879 19.5309 31.7139 19.7462 31.3832C19.9615 31.0525 20.0938 30.6748 20.132 30.282L20.24 29.17L20.28 28.73H29.506ZM18.89 25.73C18.5083 25.7303 18.1411 25.8761 17.8631 26.1377C17.5852 26.3993 17.4174 26.757 17.394 27.138C17.356 27.718 17.31 28.3 17.254 28.88L17.222 29.204C14.6111 27.8582 12.2362 26.0973 10.19 23.99C12.2361 21.8826 14.6111 20.1217 17.222 18.776L17.254 19.1C17.31 19.68 17.356 20.26 17.394 20.842C17.4174 21.223 17.5852 21.5807 17.8631 21.8423C18.1411 22.1039 18.5083 22.2497 18.89 22.25H29.006V25.73H18.89Z" fill="white"/>
</svg>
