<svg xmlns="http://www.w3.org/2000/svg" width="21" height="20" viewBox="0 0 21 20" fill="none">
  <g clip-path="url(#clip0_140_673)">
    <g filter="url(#filter0_d_140_673)">
      <path d="M14.2502 5.62496V14.4416C14.2502 16.1833 12.9752 17.7333 11.2418 17.9C9.25016 18.0916 7.5835 16.5333 7.5835 14.5833V4.28329C7.5835 3.19163 8.36683 2.19996 9.45016 2.09163C10.7002 1.96663 11.7502 2.94163 11.7502 4.16663V12.9166C11.7502 13.375 11.3752 13.75 10.9168 13.75C10.4585 13.75 10.0835 13.375 10.0835 12.9166V5.62496C10.0835 5.28329 9.80016 4.99996 9.4585 4.99996C9.11683 4.99996 8.8335 5.28329 8.8335 5.62496V12.8C8.8335 13.8916 9.61683 14.8833 10.7002 14.9916C11.9502 15.1166 13.0002 14.1416 13.0002 12.9166V4.30829C13.0002 2.56663 11.7252 1.01663 9.99183 0.849959C8.0085 0.658292 6.3335 2.21663 6.3335 4.16663V14.3916C6.3335 16.7833 8.0835 18.925 10.4668 19.15C13.2085 19.4 15.5002 17.2666 15.5002 14.5833V5.62496C15.5002 5.28329 15.2168 4.99996 14.8752 4.99996C14.5335 4.99996 14.2502 5.28329 14.2502 5.62496Z" fill="#323232"/>
      <path d="M9.94373 1.34764L9.94397 1.34766C11.3945 1.48714 12.5002 2.79682 12.5002 4.30829V12.9166C12.5002 13.8488 11.7026 14.5894 10.7499 14.4941C9.95831 14.4149 9.3335 13.6728 9.3335 12.8V5.62496C9.3335 5.59481 9.34578 5.56353 9.37142 5.53789C9.39707 5.51224 9.42835 5.49996 9.4585 5.49996C9.48864 5.49996 9.51992 5.51224 9.54557 5.53789C9.57121 5.56353 9.5835 5.59481 9.5835 5.62496V12.9166C9.5835 13.6511 10.1824 14.25 10.9168 14.25C11.6513 14.25 12.2502 13.6511 12.2502 12.9166V4.16663C12.2502 2.64879 10.9477 1.43938 9.40041 1.59411C8.02535 1.73161 7.0835 2.97276 7.0835 4.28329V14.5833C7.0835 16.8245 9.00053 18.618 11.2897 18.3977C13.3059 18.2038 14.7502 16.4135 14.7502 14.4416V5.62496C14.7502 5.59481 14.7624 5.56353 14.7881 5.53789C14.8137 5.51224 14.845 5.49996 14.8752 5.49996C14.9053 5.49996 14.9366 5.51224 14.9622 5.53789C14.9879 5.56353 15.0002 5.59481 15.0002 5.62496V14.5833C15.0002 16.9732 12.9607 18.8747 10.5132 18.6521C8.41544 18.4537 6.8335 16.5548 6.8335 14.3916V4.16663C6.8335 2.50849 8.25743 1.18468 9.94373 1.34764Z" stroke="#9EB8EB"/>
    </g>
  </g>
  <defs>
    <filter id="filter0_d_140_673" x="2.3335" y="0.833984" width="17.1665" height="26.3359" filterUnits="userSpaceOnUse" color-interpolation-filters="sRGB">
      <feFlood flood-opacity="0" result="BackgroundImageFix"/>
      <feColorMatrix in="SourceAlpha" type="matrix" values="0 0 0 0 0 0 0 0 0 0 0 0 0 0 0 0 0 0 127 0" result="hardAlpha"/>
      <feOffset dy="4"/>
      <feGaussianBlur stdDeviation="2"/>
      <feComposite in2="hardAlpha" operator="out"/>
      <feColorMatrix type="matrix" values="0 0 0 0 0 0 0 0 0 0 0 0 0 0 0 0 0 0 0.25 0"/>
      <feBlend mode="normal" in2="BackgroundImageFix" result="effect1_dropShadow_140_673"/>
      <feBlend mode="normal" in="SourceGraphic" in2="effect1_dropShadow_140_673" result="shape"/>
    </filter>
    <clipPath id="clip0_140_673">
      <rect width="20" height="20" fill="white" transform="translate(0.5)"/>
    </clipPath>
  </defs>
</svg>