<svg width="17" height="17" viewBox="0 0 17 17" fill="none" xmlns="http://www.w3.org/2000/svg">
<g clip-path="url(#clip0_21_10553)">
<path d="M16.1264 6.13291V12.7996C16.1264 13.5329 15.5264 14.1329 14.793 14.1329H4.12638C3.75972 14.1329 3.45972 13.8329 3.45972 13.4662C3.45972 13.0996 3.75972 12.7996 4.12638 12.7996H14.793V6.13291C14.793 5.76625 15.093 5.46625 15.4597 5.46625C15.8264 5.46625 16.1264 5.76625 16.1264 6.13291ZM3.45972 11.4662C2.35305 11.4662 1.45972 10.5729 1.45972 9.46625V5.46625C1.45972 4.35958 2.35305 3.46625 3.45972 3.46625H11.4597C12.5664 3.46625 13.4597 4.35958 13.4597 5.46625V10.1329C13.4597 10.8662 12.8597 11.4662 12.1264 11.4662H3.45972ZM5.45972 7.46625C5.45972 8.57291 6.35305 9.46625 7.45972 9.46625C8.56638 9.46625 9.45972 8.57291 9.45972 7.46625C9.45972 6.35958 8.56638 5.46625 7.45972 5.46625C6.35305 5.46625 5.45972 6.35958 5.45972 7.46625Z" fill="#2B8C34"/>
</g>
<defs>
<clipPath id="clip0_21_10553">
<rect width="16" height="16" fill="white" transform="translate(0.792969 0.799561)"/>
</clipPath>
</defs>
</svg>
